<?xml version="1.0" encoding="UTF-8"?>
<svg width="24px" height="24px" color="currentColor" viewBox="0 0 24 24" version="1.1" xmlns="http://www.w3.org/2000/svg" xmlns:xlink="http://www.w3.org/1999/xlink">
    <g id="组件样式" stroke="none" stroke-width="1" fill="none" fill-rule="evenodd">
        <g id="规范/Base基础组件_icon-1-4" transform="translate(-596.000000, -687.000000)">
            <g id="-mockplus-" transform="translate(596.000000, 687.000000)">
                <g id="Inout录入/Checkbox多选框/浅色Icon-选中备份-17" transform="translate(-0.000000, 0.000000)">
                    <rect id="Rectangle" x="2.27373675e-13" y="0" width="24" height="24"></rect>
                    <g id="编组" transform="translate(12.000000, 12.000000) rotate(180.000000) translate(-12.000000, -12.000000) ">
                        <path d="M2,0 L22,0 C23.1045695,0 24,0.8954305 24,2 L24,22 C24,23.1045695 23.1045695,24 22,24 L2,24 C0.8954305,24 -2.66144503e-14,23.1045695 -2.66144503e-14,22 L-2.66144503e-14,2 C-2.66144503e-14,0.8954305 0.8954305,0 2,0 Z" id="矩形"></path>
                        <path d="M8.90348983,5.44384079 L16.723537,11.5263974 C16.9851005,11.7298456 17.0322122,12.1068121 16.8287639,12.3683756 C16.7981908,12.407682 16.7628433,12.4430295 16.723537,12.4736026 L8.90348983,18.5561592 C8.79450505,18.6409293 8.63743568,18.6212994 8.55266559,18.5123146 C8.5185319,18.4684306 8.5,18.4144208 8.5,18.3588248 L8.5,16.5071419 C8.5,16.1985186 8.64250311,15.9071857 8.88613343,15.7177321 L13.667,12 L8.88594307,8.28026923 C8.64242529,8.09080892 8.5,7.79954618 8.5,7.4910075 L8.5,5.6411752 C8.5,5.50310401 8.61192881,5.3911752 8.75,5.3911752 C8.805596,5.3911752 8.85960582,5.40970711 8.90348983,5.44384079 Z" id="路径" fill="currentColor"></path>
                    </g>
                </g>
            </g>
        </g>
    </g>
</svg>