<?xml version="1.0" encoding="UTF-8"?>
<svg width="24px" height="24px" color="currentColor" viewBox="0 0 24 24" version="1.1" xmlns="http://www.w3.org/2000/svg" xmlns:xlink="http://www.w3.org/1999/xlink">
    <g id="组件样式" stroke="none" stroke-width="1" fill="none" fill-rule="evenodd">
        <g id="规范/Base基础组件_icon-1-4" transform="translate(-344.000000, -771.000000)">
            <g id="Inout录入/Checkbox多选框/浅色Icon-选中备份-54" transform="translate(344.000000, 771.000000)">
                <rect id="Rectangle" x="0" y="0" width="24" height="24"></rect>
                <path d="M20.9567841,4.65662823 L10.3433635,19.3131377 C10.0194413,19.7604552 9.39422809,19.8604868 8.94691066,19.5365647 C8.86949479,19.4805045 8.80051611,19.4136347 8.74207985,19.3379963 L3.06122586,11.9848429 C2.97681308,11.8755811 2.99695716,11.7185769 3.10621893,11.6341641 C3.14999257,11.6003457 3.20374622,11.582 3.2590618,11.582 L5.4169411,11.582 C5.72665034,11.582 6.0188814,11.7255027 6.20824483,11.9705767 L9.49410625,16.2231373 L17.8575762,4.6734932 C18.0456466,4.41377495 18.3468587,4.26 18.6675205,4.26 L20.7542992,4.26 C20.8923703,4.26 21.0042992,4.37192881 21.0042992,4.51 C21.0042992,4.56266056 20.9876702,4.61397635 20.9567841,4.65662823 Z" id="路径" fill="currentColor"></path>
            </g>
        </g>
    </g>
</svg>