<?xml version="1.0" encoding="UTF-8"?>
<svg width="24px" height="24px" color="currentColor" viewBox="0 0 24 24" version="1.1" xmlns="http://www.w3.org/2000/svg" xmlns:xlink="http://www.w3.org/1999/xlink">
    <g id="组件样式" stroke="none" stroke-width="1" fill="none" fill-rule="evenodd">
        <g id="规范/Base基础组件_icon-1-4" transform="translate(-428.000000, -1023.000000)">
            <g id="Inout录入/Checkbox多选框/浅色Icon-选中备份-7" transform="translate(428.000000, 1023.000000)">
                <rect id="Rectangle" x="0" y="0" width="24" height="24"></rect>
                <path d="M12,1 C18.0751429,1 23,5.92487286 23,12 C23,18.0751429 18.0751429,23 12,23 C5.92487286,23 1,18.0751429 1,12 C1,5.92487286 5.92487286,1 12,1 Z M8.66069782,7.24640896 C8.46539194,7.05121996 8.14883849,7.05123682 7.95355339,7.24644661 L7.24644661,7.95355339 C7.05123682,8.14883849 7.05121996,8.46539194 7.24640896,8.66069782 L10.585,12 L7.24640896,15.3393022 C7.05121996,15.5346081 7.05123682,15.8511615 7.24644661,16.0464466 L7.95355339,16.7535534 C8.14883849,16.9487632 8.46539194,16.94878 8.66069782,16.753591 L12,13.415 L15.3393022,16.753591 C15.5346081,16.94878 15.8511615,16.9487632 16.0464466,16.7535534 L16.7535534,16.0464466 C16.9487632,15.8511615 16.94878,15.5346081 16.753591,15.3393022 L13.415,12 L16.753591,8.66069782 C16.94878,8.46539194 16.9487632,8.14883849 16.7535534,7.95355339 L16.0464466,7.24644661 C15.8511615,7.05123682 15.5346081,7.05121996 15.3393022,7.24640896 L12,10.585 Z" id="形状结合" fill="currentColor"></path>
            </g>
        </g>
    </g>
</svg>