<?xml version="1.0" encoding="UTF-8"?>
<svg width="24px" height="24px" color="currentColor" viewBox="0 0 24 24" version="1.1" xmlns="http://www.w3.org/2000/svg" xmlns:xlink="http://www.w3.org/1999/xlink">
    <g id="组件样式" stroke="none" stroke-width="1" fill="none" fill-rule="evenodd">
        <g id="规范/Base基础组件_icon-1-4" transform="translate(-260.000000, -771.000000)">
            <g id="-mockplus-" transform="translate(260.000000, 771.000000)">
                <g id="Inout录入/Checkbox多选框/浅色Icon-选中备份-8" transform="translate(-2.142136, -2.142136)">
                    <rect id="Rectangle" x="2.14213562" y="2.14213562" width="24" height="24"></rect>
                    <g id="编组" transform="translate(2.142136, 2.142136)">
                        <path d="M2,0 L22,0 C23.1045695,0 24,0.8954305 24,2 L24,22 C24,23.1045695 23.1045695,24 22,24 L2,24 C0.8954305,24 0,23.1045695 0,22 L0,2 C0,0.8954305 0.8954305,0 2,0 Z" id="矩形"></path>
                        <path d="M19.6013979,5.45926227 C19.79666,5.65452442 19.79666,5.97110691 19.6013979,6.16636906 L13.767767,12 L19.6013979,17.8336309 C19.79666,18.0288931 19.79666,18.3454756 19.6013979,18.5407377 L18.5407377,19.6013979 C18.3454756,19.79666 18.0288931,19.79666 17.8336309,19.6013979 L12,13.767767 L6.16636906,19.6013979 C5.97110691,19.79666 5.65452442,19.79666 5.45926227,19.6013979 L4.3986021,18.5407377 C4.20333996,18.3454756 4.20333996,18.0288931 4.3986021,17.8336309 L10.232233,12 L4.3986021,6.16636906 C4.20333996,5.97110691 4.20333996,5.65452442 4.3986021,5.45926227 L5.45926227,4.3986021 C5.65452442,4.20333996 5.97110691,4.20333996 6.16636906,4.3986021 L12,10.232233 L17.8336309,4.3986021 C18.0288931,4.20333996 18.3454756,4.20333996 18.5407377,4.3986021 L19.6013979,5.45926227 Z" id="路径-2" fill="currentColor"></path>
                    </g>
                </g>
            </g>
        </g>
    </g>
</svg>