<?xml version="1.0" encoding="UTF-8"?>
<svg width="24px" height="24px" color="currentColor" viewBox="0 0 24 24" version="1.1" xmlns="http://www.w3.org/2000/svg" xmlns:xlink="http://www.w3.org/1999/xlink">
    <title>Icon/24px/线性/操作/文件夹-复制</title>
    <g id="Icon/24px/线性/操作/文件夹-复制" stroke="none" stroke-width="1" fill="none" fill-rule="evenodd">
        <polygon id="路径" points="0 0 24 0 24 24 0 24"></polygon>
        <path d="M4.5,6 C4.77614237,6 5,6.22385763 5,6.5 L5,20 L16.5,20 C16.7761424,20 17,20.2238576 17,20.5 L17,21.5 C17,21.7761424 16.7761424,22 16.5,22 L4,22 C3.44771525,22 3,21.5522847 3,21 L3,6.5 C3,6.22385763 3.22385763,6 3.5,6 L4.5,6 Z M20.5,2 C21.0522847,2 21.5,2.44771525 21.5,3 L21.5,17.5 C21.5,18.0522847 21.0522847,18.5 20.5,18.5 L6.5,18.5 L6.5,3 C6.5,2.44771525 6.94771525,2 7.5,2 L20.5,2 Z M19.5,4 L8.5,4 L8.5,16.5 L19.5,16.5 L19.5,4 Z" id="形状结合" fill="currentColor"></path>
    </g>
</svg>