<?xml version="1.0" encoding="UTF-8"?>
<svg width="24px" height="24px" color="currentColor" viewBox="0 0 24 24" version="1.1" xmlns="http://www.w3.org/2000/svg" xmlns:xlink="http://www.w3.org/1999/xlink">
    <g id="组件样式" stroke="none" stroke-width="1" fill="none" fill-rule="evenodd">
        <g id="规范/Base基础组件_icon-1-4" transform="translate(-932.000000, -1191.000000)">
            <g id="Inout录入/Checkbox多选框/浅色Icon-选中备份-101" transform="translate(932.000000, 1191.000000)">
                <rect id="Rectangle" x="0" y="0" width="24" height="24"></rect>
                <path d="M4.46085254,7.99538445 L5.87894318,9.41324505 C5.34181599,10.0799751 4.8180359,10.8478262 4.30707916,11.7197983 L4.151,11.988 L4.18726487,12.0502793 C6.50843409,16.0019008 9.01271441,17.8906798 11.7441285,17.9953842 L11.9857261,18 C12.7030786,18 13.4055997,17.8785579 14.0937604,17.6310767 L15.6200071,19.1572853 C14.4631561,19.7190938 13.2517289,20 11.9857261,20 C8.35347886,20 5.17917019,17.6877273 2.46276473,13.0632449 L2.28361447,12.7534174 L2.11899739,12.4586722 C1.9620575,12.1746215 1.9602438,11.8277994 2.11420401,11.5420509 L2.35241546,11.1077609 C3.02158591,9.92192042 3.72439835,8.88446151 4.46085254,7.99538445 Z M5.55776695,4.14355339 L19.8506602,18.4364466 C20.0459223,18.6317088 20.0459223,18.9482912 19.8506602,19.1435534 L19.1435534,19.8506602 C18.9482912,20.0459223 18.6317088,20.0459223 18.4364466,19.8506602 L4.14355339,5.55776695 C3.94829124,5.36250481 3.94829124,5.04592232 4.14355339,4.85066017 L4.85066017,4.14355339 C5.04592232,3.94829124 5.36250481,3.94829124 5.55776695,4.14355339 Z M7.97744685,11.5137077 L12.4902291,16.02649 C12.3298263,16.0457925 12.1665402,16.0557255 12.0009341,16.0557255 C9.76267037,16.0557255 7.94821135,14.2412664 7.94821135,12.0030027 C7.94821135,11.8373966 7.95814427,11.6741105 7.97744685,11.5137077 Z M11.9857261,4 C15.6895427,4 18.8775437,6.31338881 21.5496983,10.9401822 L21.713083,11.227204 L21.8846215,11.5398186 C22.04016,11.8267147 22.0383139,12.175659 21.8798523,12.4608259 L21.6956984,12.7873373 C20.9957413,14.0025867 20.2659469,15.0642716 19.5063155,15.9723905 L18.0890899,14.5542829 C18.6533497,13.8624652 19.2069244,13.0628203 19.750149,12.1520784 L19.845,11.989 L19.8177893,11.9404276 C17.5390332,7.99479765 15.0307276,6.10913911 12.233309,6.00460811 L11.9857261,6 C11.2671001,6 10.567824,6.11570138 9.88714304,6.35142682 L8.35438926,4.81899126 C9.50294104,4.27299729 10.7133869,4 11.9857261,4 Z M12.0009341,7.95026295 C14.2391979,7.95026295 16.0536739,9.7647389 16.0536739,12.0030027 C16.0536739,12.1672315 16.0439054,12.3291788 16.0249177,12.4882951 L11.515218,7.97906968 C11.6744705,7.9600488 11.8365595,7.95026295 12.0009341,7.95026295 Z" id="形状结合" fill="currentColor"></path>
            </g>
        </g>
    </g>
</svg>