<?xml version="1.0" encoding="UTF-8"?>
<svg width="24px" height="24px" color="currentColor" viewBox="0 0 24 24" version="1.1" xmlns="http://www.w3.org/2000/svg" xmlns:xlink="http://www.w3.org/1999/xlink">
    <g id="组件样式" stroke="none" stroke-width="1" fill="none" fill-rule="evenodd">
        <g id="规范/Base基础组件_icon-1-4" transform="translate(-848.000000, -1191.000000)">
            <g id="Inout录入/Checkbox多选框/浅色Icon-选中备份-100" transform="translate(848.000000, 1191.000000)">
                <rect id="Rectangle" x="0" y="0" width="24" height="24"></rect>
                <path d="M11.9857261,4 C15.6895427,4 18.8775437,6.31338881 21.5496983,10.9401822 L21.713083,11.227204 L21.8846215,11.5398186 C22.04016,11.8267147 22.0383139,12.175659 21.8798523,12.4608259 L21.6956984,12.7873373 C18.9261591,17.5957476 15.6894965,20 11.9857261,20 C8.35347886,20 5.17917019,17.6877273 2.46276473,13.0632449 L2.28361447,12.7534174 L2.11899739,12.4586722 C1.9620575,12.1746215 1.9602438,11.8277994 2.11420401,11.5420509 L2.35241546,11.1077609 C5.02635475,6.36925888 8.23746344,4 11.9857261,4 Z M11.9857261,6 C9.13796816,6 6.5940738,7.81693259 4.30707916,11.7197983 L4.151,11.988 L4.18726487,12.0502793 C6.50843409,16.0019008 9.01271441,17.8906798 11.7441285,17.9953842 L11.9857261,18 C14.7913406,18 17.3700866,16.1423668 19.750149,12.1520784 L19.845,11.989 L19.8177893,11.9404276 C17.5390332,7.99479765 15.0307276,6.10913911 12.233309,6.00460811 L11.9857261,6 Z M11.9999925,8.4 C13.9882195,8.4 15.6,10.0117805 15.6,12.0000075 C15.6,13.9882345 13.9882195,15.6 11.9999925,15.6 C10.0117655,15.6 8.4,13.9882345 8.4,12.0000075 C8.4,10.0117805 10.0117655,8.4 11.9999925,8.4 Z M11.9999925,10.4 C11.1163405,10.4 10.4,11.1163446 10.4,12.0000075 C10.4,12.883665 11.116335,13.6 11.9999925,13.6 C12.8836554,13.6 13.6,12.8836595 13.6,12.0000075 C13.6,11.11635 12.88365,10.4 11.9999925,10.4 Z" id="形状结合" fill="currentColor"></path>
            </g>
        </g>
    </g>
</svg>