<?xml version="1.0" encoding="UTF-8"?>
<svg width="24px" height="24px" color="currentColor" viewBox="0 0 24 24" version="1.1" xmlns="http://www.w3.org/2000/svg" xmlns:xlink="http://www.w3.org/1999/xlink">
    <g id="组件样式" stroke="none" stroke-width="1" fill="none" fill-rule="evenodd">
        <g id="规范/Base基础组件_icon-1-4" transform="translate(-260.000000, -1275.000000)">
            <g id="Inout录入/Checkbox多选框/浅色Icon-选中备份-24" transform="translate(260.000000, 1275.000000)">
                <rect id="Rectangle" x="0" y="0" width="24" height="24"></rect>
                <path d="M11,2 C15.9705627,2 20,6.02943725 20,11 C20,13.124779 19.2636898,15.0775836 18.0323074,16.6171757 L21.8506602,20.4364466 C22.0459223,20.6317088 22.0459223,20.9482912 21.8506602,21.1435534 L21.1435534,21.8506602 C20.9482912,22.0459223 20.6317088,22.0459223 20.4364466,21.8506602 L16.6171757,18.0323074 C15.0775836,19.2636898 13.124779,20 11,20 C6.02943725,20 2,15.9705627 2,11 C2,6.02943725 6.02943725,2 11,2 Z M11,4 C7.13400675,4 4,7.13400675 4,11 C4,14.8659932 7.13400675,18 11,18 C14.8659932,18 18,14.8659932 18,11 C18,7.13400675 14.8659932,4 11,4 Z" id="形状结合" fill="currentColor"></path>
            </g>
        </g>
    </g>
</svg>